<?xml version="1.0" encoding="utf-8"?>
<!-- Generator: Adobe Illustrator 18.1.1, SVG Export Plug-In . SVG Version: 6.00 Build 0)  -->
<svg version="1.1" id="Layer_1" xmlns="http://www.w3.org/2000/svg" xmlns:xlink="http://www.w3.org/1999/xlink" x="0px" y="0px"
	 viewBox="0 0 40 40" enable-background="new 0 0 40 40" xml:space="preserve">
<path d="M27.2,30.7"/>
<path d="M19.2,35.8h8.2l3.2-3.2h7.6l1.7-1.7H22.5l-3-3.6l3-3.6h4.4l0.5-0.5h5.2l1-1.7H31l1.2-1.2L31,18.8h2.6l-1-1.7h-5.2l-0.5-0.5
	h-4.4l-3-3.6l3-3.6H40l-1.7-1.7h-7.6l-3.2-3.2h-8.2l-1.9-1.9H7.9L0,11.7h7l-0.6,0.7H3.4l-2.2,2.2h6.3l1.7-1.7h3.1l3,3.6h-4.6
	l-0.4,0.7H4.8L3,20h0l0,0l0,0h0l1.8,2.7h5.6l0.4,0.7h4.6l-3,3.6H9.2l-1.7-1.7H1.2l2.2,2.2h2.9L7,28.3H0l7.9,9.3h9.5L19.2,35.8z
	 M22.5,7.5L20,5h6.8l2.4,2.4H22.5z M11.4,10.6l1.3-1.4h2.6l-1.1,1.4H11.4z M9.8,12.3l0.6-0.6l0.5-0.5h2.9l-0.9,1.1H9.8z M31.5,20
	l-1.1,1.2h-0.8l1.2-1.2l-1.2-1.2h0.9L31.5,20z M28.9,18.8L30,20l-1.1,1.2l-1-1.2L28.9,18.8L28.9,18.8z M5.8,21.4L4.7,20l1.1-1.4h3.7
	L8,20l1.6,1.4H5.8z M10.9,28.8l-0.5-0.5l-0.6-0.6h3l0.9,1.1H10.9z M12.7,30.8l-1.3-1.4h2.8l1.1,1.4H12.7z M20,35l2.4-2.4h6.8
	L26.9,35H20z"/>
</svg>
